<?xml version="1.0" standalone="no"?>
<!DOCTYPE svg PUBLIC "-//W3C//DTD SVG 20010904//EN"
 "http://www.w3.org/TR/2001/REC-SVG-20010904/DTD/svg10.dtd">
<svg version="1.0" xmlns="http://www.w3.org/2000/svg"
 width="259.000000pt" height="259.000000pt" viewBox="0 0 259.000000 259.000000"
 preserveAspectRatio="xMidYMid meet">
<metadata>
Created by potrace 1.14, written by Peter Selinger 2001-2017
</metadata>
<g transform="translate(0.000000,259.000000) scale(0.100000,-0.100000)"
fill="#000000" stroke="none">
<path d="M1258 2505 c-2 -2 -28 -6 -58 -9 -88 -11 -208 -47 -264 -81 -45 -27
-51 -35 -51 -63 l0 -32 -355 -1 c-456 -2 -439 -1 -453 -20 -9 -12 -12 -168
-11 -600 0 -321 1 -638 3 -704 l2 -120 172 -98 c94 -54 215 -123 267 -153 52
-31 118 -68 145 -84 56 -31 95 -54 340 -195 94 -53 181 -104 195 -113 14 -9
27 -17 30 -17 3 -1 21 -11 39 -23 l35 -21 75 41 c42 23 88 50 103 60 14 10 29
18 32 18 3 0 34 18 70 39 54 33 465 271 671 389 33 18 65 37 70 41 6 5 51 30
100 56 50 26 94 51 100 56 13 13 15 1419 2 1437 -7 9 -92 12 -364 12 l-355 0
-61 51 c-53 44 -121 87 -152 96 -93 26 -146 35 -227 37 -53 2 -98 2 -100 1z
m-412 -258 c4 -4 -35 -7 -87 -8 -102 -1 -465 -7 -515 -8 -59 -2 -67 -17 -67
-122 2 -373 14 -1156 18 -1170 5 -16 106 -81 223 -144 20 -11 39 -23 40 -27 2
-5 8 -8 12 -8 9 0 107 -55 160 -88 14 -9 27 -17 30 -17 3 0 34 -18 70 -39 36
-21 79 -46 95 -56 17 -9 125 -72 242 -138 116 -67 217 -122 223 -122 10 0 265
144 390 220 43 27 320 186 580 334 l125 71 0 580 c0 693 -1 712 -24 720 -10 3
-108 7 -217 10 -109 2 -224 5 -254 6 l-55 2 55 7 c77 8 558 6 567 -3 8 -9 12
-1129 3 -1255 l-5 -82 -60 -37 c-52 -31 -424 -246 -480 -277 -11 -6 -27 -16
-35 -22 -8 -6 -40 -25 -70 -41 -30 -17 -111 -63 -180 -103 -335 -196 -332
-194 -360 -178 -29 18 -665 385 -695 402 -20 11 -327 189 -405 234 l-40 23 -1
527 c-1 290 -1 550 -1 577 0 28 0 91 1 142 l1 92 38 3 c77 6 671 2 678 -5z
m-155 -165 l36 -2 -27 -77 c-26 -77 -28 -78 -82 -105 -53 -26 -87 -63 -102
-113 -12 -42 -4 -43 329 -50 222 -5 322 -11 327 -19 5 -8 -42 -12 -177 -16
-101 -3 -186 -8 -189 -11 -3 -3 -8 -23 -12 -45 -4 -27 -21 -56 -53 -94 -26
-30 -56 -67 -65 -82 -24 -36 -14 -76 19 -84 37 -9 43 -23 48 -104 7 -95 12
-107 51 -120 36 -12 76 1 147 46 21 13 56 27 76 30 92 14 102 19 204 114 124
115 152 140 156 136 2 -1 -12 -33 -31 -69 -33 -63 -35 -69 -29 -144 6 -81 7
-104 4 -140 -1 -19 -18 -25 -176 -64 -134 -33 -176 -46 -180 -60 -10 -31 23
-193 42 -207 10 -7 74 -43 142 -79 l123 -66 42 21 c22 12 73 42 111 67 39 25
87 54 108 65 50 28 60 56 50 154 -11 108 -9 297 3 318 11 19 89 112 157 184
52 56 54 63 63 174 3 41 9 78 13 82 4 4 38 10 76 13 38 4 71 8 72 9 11 10 10
96 0 110 -12 16 -77 20 -405 25 -29 1 -45 6 -49 16 -3 9 -4 18 -1 20 5 5 154
22 268 30 47 3 94 8 105 10 11 2 26 4 33 4 10 1 12 11 8 39 -13 79 -14 76 29
83 71 12 266 4 276 -12 5 -8 9 -246 9 -530 0 -397 -3 -519 -12 -531 -12 -14
-153 -98 -166 -98 -3 0 -13 -6 -21 -14 -9 -7 -47 -30 -86 -51 -38 -21 -86 -48
-105 -60 -34 -22 -131 -78 -220 -128 -25 -14 -67 -39 -95 -55 -27 -16 -79 -46
-115 -66 -36 -21 -79 -46 -96 -56 -30 -19 -31 -19 -75 4 -35 18 -282 160 -359
206 -21 13 -257 148 -300 172 -254 143 -250 140 -251 178 -4 84 -4 911 -1 972
3 53 7 68 20 70 16 4 254 3 333 0z"/>
</g>
</svg>
